<?xml version="1.0" encoding="UTF-8"?>
<svg width="21px" height="5px" viewBox="0 0 21 5" version="1.1" xmlns="http://www.w3.org/2000/svg" xmlns:xlink="http://www.w3.org/1999/xlink">
    <!-- Generator: Sketch 49.3 (51167) - http://www.bohemiancoding.com/sketch -->
    <title>Group 6</title>
    <desc>Created with Sketch.</desc>
    <defs></defs>
    <g id="Page-3" stroke="none" stroke-width="1" fill="none" fill-rule="evenodd">
        <g id="Desktop-HD" transform="translate(-170.000000, -413.000000)" fill="#172BFF">
            <g id="Group-7" transform="translate(0.000000, 277.000000)">
                <g id="Group-6" transform="translate(170.000000, 136.000000)">
                    <path d="M4.54531766,0.272183628 C5.08379854,0.685151213 5.15403557,1.41889853 4.70219647,1.91105414 L2.24781527,4.58443378 C1.79597617,5.07658938 0.99316321,5.14078396 0.454682337,4.72781637 C-0.0837985355,4.31484879 -0.154035568,3.58110147 0.297803533,3.08894586 L2.75218473,0.415566218 C3.20402383,-0.0765893848 4.00683679,-0.140783957 4.54531766,0.272183628 Z" id="Rectangle-4-Copy"></path>
                    <path d="M12.5453177,0.272183628 C13.0837985,0.685151213 13.1540356,1.41889853 12.7021965,1.91105414 L10.2478153,4.58443378 C9.79597617,5.07658938 8.99316321,5.14078396 8.45468234,4.72781637 C7.91620146,4.31484879 7.84596443,3.58110147 8.29780353,3.08894586 L10.7521847,0.415566218 C11.2040238,-0.0765893848 12.0068368,-0.140783957 12.5453177,0.272183628 Z" id="Rectangle-4-Copy-2"></path>
                    <path d="M20.5453177,0.272183628 C21.0837985,0.685151213 21.1540356,1.41889853 20.7021965,1.91105414 L18.2478153,4.58443378 C17.7959762,5.07658938 16.9931632,5.14078396 16.4546823,4.72781637 C15.9162015,4.31484879 15.8459644,3.58110147 16.2978035,3.08894586 L18.7521847,0.415566218 C19.2040238,-0.0765893848 20.0068368,-0.140783957 20.5453177,0.272183628 Z" id="Rectangle-4-Copy-3"></path>
                </g>
            </g>
        </g>
    </g>
</svg>