<?xml version="1.0" encoding="UTF-8"?>
<svg width="35px" height="35px" viewBox="0 0 35 35" version="1.1" xmlns="http://www.w3.org/2000/svg" xmlns:xlink="http://www.w3.org/1999/xlink">
    <!-- Generator: Sketch 49.3 (51167) - http://www.bohemiancoding.com/sketch -->
    <title>Group 2</title>
    <desc>Created with Sketch.</desc>
    <defs></defs>
    <g id="Page-3" stroke="none" stroke-width="1" fill="none" fill-rule="evenodd">
        <g id="Desktop-HD" transform="translate(-20.000000, -20.000000)">
            <g id="Group-2" transform="translate(20.000000, 20.000000)">
                <circle id="Oval" stroke="#E7E8EA" cx="17.5" cy="17.5" r="17"></circle>
                <g id="Group-3" transform="translate(8.500000, 13.000000)">
                    <g id="Group-5">
                        <path d="M0,8 L-1.11022302e-16,1 C-1.78657678e-16,0.44771525 0.44771525,1.01453063e-16 1,0 L1.43468301,-2.22044605e-16 C1.98696776,-3.23497668e-16 2.43468301,0.44771525 2.43468301,1 L2.43468301,3.42253521 L4.83128024,0.381080092 C5.02089901,0.140440171 5.3103639,5.00368547e-16 5.61673434,4.4408921e-16 L6.50497358,0 C6.86978265,-6.70143377e-17 7.16551883,0.295736178 7.16551883,0.660545241 C7.16551883,0.810415693 7.11455328,0.955831132 7.02099223,1.07291009 L4.65711161,4.03098592 L7.30622531,7.85090295 C7.53659905,8.18309276 7.45406082,8.63914063 7.12187101,8.86951437 C6.99936139,8.95447483 6.85382928,9 6.70474245,9 L5.84264642,9 C5.5076863,9 5.19497199,8.83229569 5.00964721,8.55327418 L3.10890292,5.6915493 L2.43468301,6.40140845 L2.43468301,8 C2.43468301,8.55228475 1.98696776,9 1.43468301,9 L1,9 C0.44771525,9 6.76353751e-17,8.55228475 0,8 Z" id="KM" fill="#14192E"></path>
                        <g id="Group-4" transform="translate(8.000000, 0.000000)">
                            <path d="M7.56531699,8 L7.56531699,4.25915493 L6.34378622,7.00003192 C6.18306627,7.36065616 5.82520847,7.59295775 5.43039111,7.59295775 L5.3901408,7.59295775 C5.01603945,7.59295775 4.67322397,7.38414804 4.50159256,7.05174093 L1.47062382,1.18151281 C1.2654045,0.784054348 1.42124513,0.295487474 1.81870359,0.09026816 C1.93358421,0.0309519718 2.06099579,7.11890461e-14 2.19028603,7.11652959e-14 L2.87411864,7.10542736e-14 C3.26726789,7.09820532e-14 3.62393858,0.230366067 3.78563053,0.588726283 L5.43028727,4.23380282 L7.08670601,0.5864966 C7.24890795,0.22934045 7.60494593,6.346634e-14 7.99720858,5.32907052e-14 L9,0 C9.55228475,-1.53078023e-14 10,0.44771525 10,1 L10,8 C10,8.55228475 9.55228475,9 9,9 L8.56531699,9 C8.01303224,9 7.56531699,8.55228475 7.56531699,8 Z" id="Path" fill="#14192E"></path>
                            <path d="M2.29525755,9 L1.86057454,9 C1.30828979,9 0.860574542,8.55228475 0.860574542,8 L0.860574542,7.66991373 C0.860574542,7.11762898 1.30828979,6.66991373 1.86057454,6.66991373 L2.29525755,6.66991373 C2.8475423,6.66991373 3.29525755,7.11762898 3.29525755,7.66991373 L3.29525755,8 C3.29525755,8.55228475 2.8475423,9 2.29525755,9 Z" id="Path" fill="#172BFF"></path>
                        </g>
                    </g>
                </g>
            </g>
        </g>
    </g>
</svg>